<svg xmlns="http://www.w3.org/2000/svg" width="1200" height="420" viewBox="0 0 1200 420">
  <rect width="1200" height="420" fill="#ffffff"/>
  <text x="40" y="50" font-size="30" font-family="Arial" fill="#111827">Global Commodities Warehouse Architecture</text>

  <rect x="40" y="110" width="220" height="90" rx="12" fill="#fef3c7" stroke="#f59e0b"/>
  <text x="65" y="150" font-size="22" font-family="Arial" fill="#92400e">Source API</text>
  <text x="65" y="178" font-size="16" font-family="Arial" fill="#92400e">Yahoo Finance</text>

  <rect x="320" y="110" width="220" height="90" rx="12" fill="#fde68a" stroke="#d97706"/>
  <text x="370" y="150" font-size="22" font-family="Arial" fill="#78350f">Bronze</text>
  <text x="353" y="178" font-size="16" font-family="Arial" fill="#78350f">Raw Prices Table</text>

  <rect x="600" y="110" width="220" height="90" rx="12" fill="#d1fae5" stroke="#059669"/>
  <text x="660" y="150" font-size="22" font-family="Arial" fill="#065f46">Silver</text>
  <text x="628" y="178" font-size="16" font-family="Arial" fill="#065f46">Clean + Enriched</text>

  <rect x="880" y="110" width="260" height="90" rx="12" fill="#dbeafe" stroke="#2563eb"/>
  <text x="980" y="150" font-size="22" font-family="Arial" fill="#1e3a8a">Gold</text>
  <text x="915" y="178" font-size="16" font-family="Arial" fill="#1e3a8a">Fact + Dimensions (MySQL)</text>

  <rect x="880" y="260" width="260" height="90" rx="12" fill="#e9d5ff" stroke="#7c3aed"/>
  <text x="955" y="300" font-size="22" font-family="Arial" fill="#4c1d95">Analytics</text>
  <text x="930" y="328" font-size="16" font-family="Arial" fill="#4c1d95">Jupyter Notebook</text>

  <line x1="260" y1="155" x2="320" y2="155" stroke="#111827" stroke-width="3"/>
  <polygon points="320,155 308,148 308,162" fill="#111827"/>

  <line x1="540" y1="155" x2="600" y2="155" stroke="#111827" stroke-width="3"/>
  <polygon points="600,155 588,148 588,162" fill="#111827"/>

  <line x1="820" y1="155" x2="880" y2="155" stroke="#111827" stroke-width="3"/>
  <polygon points="880,155 868,148 868,162" fill="#111827"/>

  <line x1="1010" y1="200" x2="1010" y2="260" stroke="#111827" stroke-width="3"/>
  <polygon points="1010,260 1003,248 1017,248" fill="#111827"/>
</svg>